<svg width="180" height="180" viewBox="0 0 180 180" fill="none" xmlns="http://www.w3.org/2000/svg">
  <!-- Background circle -->
  <circle cx="90" cy="90" r="85" fill="#f0f9ff" stroke="#3b82f6" stroke-width="2"/>
  
  <!-- Panda head -->
  <circle cx="90" cy="75" r="35" fill="#ffffff" stroke="#1f2937" stroke-width="2"/>
  
  <!-- Panda ears -->
  <circle cx="70" cy="55" r="12" fill="#1f2937"/>
  <circle cx="110" cy="55" r="12" fill="#1f2937"/>
  
  <!-- Panda eyes -->
  <circle cx="82" cy="70" r="8" fill="#1f2937"/>
  <circle cx="98" cy="70" r="8" fill="#1f2937"/>
  <circle cx="84" cy="68" r="3" fill="#ffffff"/>
  <circle cx="100" cy="68" r="3" fill="#ffffff"/>
  
  <!-- Panda nose -->
  <ellipse cx="90" cy="80" rx="3" ry="2" fill="#1f2937"/>
  
  <!-- Panda mouth -->
  <path d="M 85 85 Q 90 90 95 85" stroke="#1f2937" stroke-width="2" fill="none" stroke-linecap="round"/>
  
  <!-- Clipboard/planner -->
  <rect x="70" y="110" width="40" height="50" rx="3" fill="#ffffff" stroke="#3b82f6" stroke-width="2"/>
  
  <!-- Clipboard lines -->
  <line x1="75" y1="120" x2="105" y2="120" stroke="#6b7280" stroke-width="1"/>
  <line x1="75" y1="130" x2="100" y2="130" stroke="#6b7280" stroke-width="1"/>
  <line x1="75" y1="140" x2="95" y2="140" stroke="#6b7280" stroke-width="1"/>
  <line x1="75" y1="150" x2="105" y2="150" stroke="#6b7280" stroke-width="1"/>
  
  <!-- Checkmark -->
  <path d="M 77 125 L 80 128 L 85 123" stroke="#10b981" stroke-width="2" fill="none" stroke-linecap="round" stroke-linejoin="round"/>
</svg>
